<?xml version="1.0" encoding="UTF-8"?>
<svg xmlns="http://www.w3.org/2000/svg" xmlns:xlink="http://www.w3.org/1999/xlink" width="150px" height="150px" viewBox="0 0 150 150" version="1.1">
<g id="surface1">
<path style=" stroke:none;fill-rule:nonzero;fill:rgb(0%,0%,0%);fill-opacity:1;" d="M 18.75 18.75 C 18.75 13.5625 14.5625 9.375 9.375 9.375 C 4.1875 9.375 0 13.5625 0 18.75 L 0 117.1875 C 0 130.136719 10.488281 140.625 23.4375 140.625 L 140.625 140.625 C 145.8125 140.625 150 136.4375 150 131.25 C 150 126.0625 145.8125 121.875 140.625 121.875 L 23.4375 121.875 C 20.859375 121.875 18.75 119.765625 18.75 117.1875 Z M 137.871094 44.121094 C 141.53125 40.460938 141.53125 34.511719 137.871094 30.851562 C 134.210938 27.1875 128.261719 27.1875 124.601562 30.851562 L 93.75 61.726562 L 76.933594 44.910156 C 73.273438 41.25 67.324219 41.25 63.664062 44.910156 L 30.851562 77.722656 C 27.1875 81.386719 27.1875 87.332031 30.851562 90.996094 C 34.511719 94.65625 40.460938 94.65625 44.121094 90.996094 L 70.3125 64.835938 L 87.128906 81.648438 C 90.789062 85.3125 96.738281 85.3125 100.398438 81.648438 L 137.898438 44.148438 Z M 137.871094 44.121094 "/>
</g>
</svg>
