<?xml version="1.0" encoding="UTF-8"?>
<svg xmlns="http://www.w3.org/2000/svg" xmlns:xlink="http://www.w3.org/1999/xlink" width="150px" height="150px" viewBox="0 0 150 150" version="1.1">
<g id="surface1">
<path style=" stroke:none;fill-rule:nonzero;fill:rgb(0%,0%,0%);fill-opacity:1;" d="M 73.425781 0.148438 C 74.464844 -0.03125 75.535156 -0.03125 76.574219 0.148438 L 143.539062 11.867188 C 147.289062 12.507812 150 15.410156 150 18.75 C 150 22.089844 147.289062 24.992188 143.539062 25.632812 L 117.855469 30.148438 L 117.855469 46.875 C 117.855469 67.585938 98.671875 84.375 75 84.375 C 51.328125 84.375 32.144531 67.585938 32.144531 46.875 L 32.144531 30.148438 L 16.070312 27.335938 L 16.070312 46.40625 L 21.328125 69.375 C 21.628906 70.75 21.226562 72.1875 20.222656 73.273438 C 19.21875 74.355469 17.679688 75 16.070312 75 L 5.355469 75 C 3.75 75 2.242188 74.382812 1.207031 73.273438 C 0.167969 72.15625 -0.234375 70.75 0.101562 69.375 L 5.355469 46.40625 L 5.355469 25.371094 C 2.175781 24.40625 0 21.765625 0 18.75 C 0 15.410156 2.710938 12.507812 6.460938 11.867188 Z M 37.464844 96.007812 C 40.980469 95.007812 44.765625 96.121094 47.308594 98.496094 L 71.082031 120.617188 C 73.191406 122.578125 76.773438 122.578125 78.882812 120.617188 L 102.65625 98.496094 C 105.199219 96.121094 108.984375 95.007812 112.5 96.007812 C 134.261719 102.128906 150 119.941406 150 141.007812 C 150 145.984375 145.378906 150 139.722656 150 L 10.277344 150 C 4.621094 150 0 145.957031 0 141.007812 C 0 119.941406 15.738281 102.128906 37.464844 96.007812 Z M 37.464844 96.007812 "/>
</g>
</svg>
