<?xml version="1.0" encoding="UTF-8"?>
<svg xmlns="http://www.w3.org/2000/svg" xmlns:xlink="http://www.w3.org/1999/xlink" width="150px" height="150px" viewBox="0 0 150 150" version="1.1">
<g id="surface1">
<path style=" stroke:none;fill-rule:nonzero;fill:rgb(0%,0%,0%);fill-opacity:1;" d="M 75 75 C 98.671875 75 117.855469 58.210938 117.855469 37.5 C 117.855469 16.789062 98.671875 0 75 0 C 51.328125 0 32.144531 16.789062 32.144531 37.5 C 32.144531 58.210938 51.328125 75 75 75 Z M 107.074219 84.550781 L 91.070312 140.625 L 80.355469 100.78125 L 91.070312 84.375 L 58.929688 84.375 L 69.644531 100.78125 L 58.929688 140.625 L 42.925781 84.550781 C 19.050781 85.546875 0 102.625 0 123.75 L 0 135.9375 C 0 143.703125 7.199219 150 16.070312 150 L 133.929688 150 C 142.800781 150 150 143.703125 150 135.9375 L 150 123.75 C 150 102.625 130.949219 85.546875 107.074219 84.550781 Z M 107.074219 84.550781 "/>
</g>
</svg>
